<svg xmlns="http://www.w3.org/2000/svg" viewBox="0 0 300 300"><title>ui-seal-black</title><path d="M737.49,541.14A150.09,150.09,0,1,0,599.24,749.52h.08a149.88,149.88,0,0,0,150-149.79v-.41A149,149,0,0,0,737.49,541.14Zm-4.87,114.71A145.2,145.2,0,1,1,744,599.53,144,144,0,0,1,732.62,655.85ZM566.36,716l2.95.84-4.57,16-3.45-1,3.55-12.42a17.86,17.86,0,0,1-4.31,1l.91-3.17A23.38,23.38,0,0,0,566.36,716Zm20.94,3.72c-4-.41-6,2-6.17,4-.26,2.55,2,3.5,2.76,3.84a5.17,5.17,0,0,0-2.29,1,3.86,3.86,0,0,0-1.51,2.77c-.27,2.65,1.83,5,5.19,5.38s6.24-1.16,6.55-4.19a4.2,4.2,0,0,0-.51-2.54,4.32,4.32,0,0,0-2.47-2,3.73,3.73,0,0,0,3.6-3.29C592.72,722.21,590.62,720.08,587.3,719.74ZM588.37,732a2.38,2.38,0,1,1-2.12-2.63A2.33,2.33,0,0,1,588.37,732Zm.64-7.38a2.12,2.12,0,0,1-2.45,1.91,2.08,2.08,0,0,1-1.91-2.35,2,2,0,0,1,2.36-1.83A2.06,2.06,0,0,1,589,724.62Zm25.73,4.81a4.32,4.32,0,0,0-2.78-1.5,3.74,3.74,0,0,0,3-3.88c-.2-2.59-2.65-4.31-6-4.06-4,.31-5.52,3-5.37,5.07.2,2.56,2.55,3.1,3.41,3.29a5.3,5.3,0,0,0-2.1,1.4,3.87,3.87,0,0,0-1,3c.2,2.66,2.69,4.64,6.06,4.38s5.94-2.24,5.71-5.27A4.17,4.17,0,0,0,614.74,729.43Zm-5.6-6.82a2.07,2.07,0,0,1,2.37,1.89,2.11,2.11,0,0,1-2.07,2.3,2.1,2.1,0,1,1-.3-4.19Zm.9,12a2.36,2.36,0,0,1-2.59-2.29,2.39,2.39,0,1,1,2.59,2.29Zm20-18c-3.55.93-5.1,3.77-4.31,6.77.5,1.91,2.34,4.77,6.27,3.74a4.11,4.11,0,0,0,2.61-1.87c.65,2.2,1.12,4.73-1.28,5.36a1.65,1.65,0,0,1-2.09-1.13l-3.47.91c1.1,4.22,5.18,3.15,6.07,2.91,3.89-1,5.69-3.55,3.9-10.34C637.08,720.33,635.57,715.12,630.05,716.56Zm1.89,7.7c-2,.53-2.69-1.41-2.83-2a2.33,2.33,0,0,1,1.57-3.12,2.22,2.22,0,0,1,2.78,1.88C633.76,722.18,633.64,723.81,631.94,724.26Zm-21.82-57s-.79,18.38-.79,14.28c0-2.81-1.86-9.29-4-15.47l11.11.13v.66C616.47,666.7,610.12,667.23,610.12,667.23Zm-18.41,31.38c-1.69-1.87-3.21-4.36-2-6.64a2.3,2.3,0,0,1,3.42-.12c2.08,1.9,3.08,4.4,1.86,6.69A2.37,2.37,0,0,1,591.71,698.61Zm92.46-53.86-7.14-.13v-1.46a10.35,10.35,0,0,1,.4-2.77,2,2,0,0,1,1.58-1.33h3a8.06,8.06,0,0,1,1.45.8c.52.26.66,1.19.66,1.45Zm-5.29-14.81a1.32,1.32,0,0,1,1.72-.79c1.32.39,1.06,1.19,1.06,1.32A20.93,20.93,0,0,1,678.88,629.94ZM676,635.23c-.26-.4-1.45-.53-1.06-1.45s1.59-.27,1.59-.27l.93.93a1.1,1.1,0,0,0,1.05.13,3.47,3.47,0,0,1,2-.26,1.72,1.72,0,0,1,1.19,1.31,2.71,2.71,0,0,1-1.72.41,3,3,0,0,1-1.71-.8C678,635,676.24,635.62,676,635.23Zm8.33,15.08-.93,1.18s-3.56.4-3.56.14.92-1.32.92-1.32Zm17.16-94.09a111,111,0,0,0-204.35.23,110.71,110.71,0,0,0,0,86.11,110.93,110.93,0,0,0,204.36-86.34ZM612.11,685.08l-2,.13-1.71,1.06a31,31,0,0,0,.26,3.31c.14.13,1.05,2.64,1.05,2.64l.14,2.91-7.94,3.17-.65.49a5.54,5.54,0,0,1-.24-1.28,16,16,0,0,1,1.15-3.53l.28-.64-.7,0a1.92,1.92,0,0,1-2-1.29,17.63,17.63,0,0,1-.37-4.49l0-.31-.29-.11s-1.1-.41-2.56-.8c-1-.27-1-.51-1.1-1a2.74,2.74,0,0,0,0-.28.64.64,0,0,0-.3-.46,1,1,0,0,0-.82,0,1.91,1.91,0,0,1-1.6-.1,23,23,0,0,0-3.92-1.5l-.58-.16,0,.6c0,.68-.08,2.19-.7,2.5a7.42,7.42,0,0,1-3,.35l-.48,0,0,.49a4.65,4.65,0,0,1-.1,1.62c-.45.31-1.85,1.59-2,1.74l-.33.3-3.28,1-.07-.29,1.59-2s.13-1.32.65-1.72,2.52-2,2.52-2h1.45c.14,0,2.51-1.85,2.51-1.85l-.24,0c6.28-3.12,11.71-5.82,12.36-6.2,1.58-.92,2-2.48,1.09-4.38-.65-1.44-2.81-1-4-.46l-16.08,8.09c-.08-1.14.45-3.41,5.83-8.77.09-.1.52-.93.52-.93s-2-2.77-3.3-5.16a22.16,22.16,0,0,1-2.38-7.14,1.29,1.29,0,0,0-1.85-1.19,25.68,25.68,0,0,0-4.36,2.65c-.8.79-10.05,6.21-10.72,6.61s-2.51,1.46-3,.53-.14-3,.92-4.36,5.69-6.09,5.69-6.09,1.58-2.24.39-3.57-3.84-.79-3.84-.79l-.25,2.64-13.36,10.85,5.42-14,3.7-.13,4.63-4.76,24.86-.13,2.91-1.33s7.54,5.16,10.44,12.57c.88,2.23,1.85,4.87,2.78,7.58v-3.22l5.95-7.54,9,.13,2.53,3.14-.13.95c-1.05.6-2.54,1.6-2.54,2.52V662a7,7,0,0,0,1,4.3s0,.09,0,.2c-.29,1.44-5.88,5-8,6.3l-.16.1.65,3.07,7.53-4.91-.08,1.7v12.43l6,.24a14.28,14.28,0,0,1-.74,4l-.33.25a2.43,2.43,0,0,1-.52-.11c-1.13-.32-3-.84-8.23,1.87a6.49,6.49,0,0,0-3.37,4.11l-.88-1.1-1.59-3.84-1.19-.13a20.12,20.12,0,0,1-.66-3.43c.13-.41,2.38-1.2,2.38-1.2l5.68-.26.14-.8ZM501,558.1c.64-1.51,1.32-3,2-4.48.8-1.14,1.7-2.24,2.55-3.42.41-.58,1.89-1.18,2.27-.53a18.82,18.82,0,0,0,1.31,2.35c1,1.15,2.08,2.16,1.5,3.86-.14.41-.55.79-1,.49s-.7-.76-1-.41c-1.1,1.18-2.06-.66-3.42.19s-1.81,2.58-3.53,2.93a.79.79,0,0,1-.94-.38Zm86.12,7.57,6-.92,9.32,7.36c.15-.08-9.1,5.8-9.1,5.8l-6.22.1S587.11,565.68,587.12,565.67Zm0-12.9,21.16,15.82-4.12,2.09-16.94-12.43Zm21.55,17.48a6.34,6.34,0,0,1,3.4.67C623.28,576.09,661,593,661,593l13.14,13L662,604s13.81,15.52,20.89,22.22a7.9,7.9,0,0,0-5.39.79,18.3,18.3,0,0,1-4.22,1.62s-14.5-15.73-22.39-23c1.76,3.86,9.38,20.68,9.38,20.68s-.57.66-.91,1c-5.7-6.46-9.19-14.23-14.82-20.63,2.82,8.52,8.33,25.45,8.33,25.45s-2.82-1.65-4.58-1.11c-1.44.44-3.92,1.34-3.92,1.34s-7.71-17.9-10.83-27.26c-.26-.78-1-.63-1-.48-1.77,8.41-3.89,20.57-3.89,20.57L626,603,612.3,634.61l-2.15-.1s8.09-30.23,9-35.77c-7.43,8.83-20.1,28-20.1,28s-1.31,1.94-1,1c2.34-6.67,6.16-18.68,9.06-25.11-6.56,3.72-20,13.22-20,13.22v-10s13.77-12.61,19.31-20.43c-1.72-.2-1.32-.53-2,0-5.59,4-17.33,10.63-17.33,10.63s.14-7.77-.26-11.63C587.11,584.46,608.66,570.25,608.66,570.25ZM679,655.19v-.12l-.09-.08a1.06,1.06,0,0,0-.86-.19c-.5.12-.93.62-1.28,1.49-.68,1.7-8.72,21.2-10.85,26.38a108.51,108.51,0,0,1-9.53,6.84c-.22-1.39-.29-3.64,1-4,.94-.29,1.24-.14,1.32-.06s.06.4.06.4l-.17.58,2.81-1.4v-2.27l-.36.14c-.07,0-6.67,2.58-9.56.94s-6.46-4.28-6.22-7.15a3.17,3.17,0,0,1,1.93-2.64,5.87,5.87,0,0,1,1.81-.56l.23,0v-2.06l-.41.29c-.76.53-4.54,3.2-4.8,3.47s-2.6,2.06-5.19,4.1l-2.94,2.31c-6,4.68-6,4.7-6,4.88v.16l.13.07c.16.1.25.15,3.72-1.86a3.33,3.33,0,0,1,.91-.48c.16,0,.65.31.65.53s0,.65,5.44.66a20.38,20.38,0,0,1,.51,2.86c-.21.39-.58.91-.85,1a10.16,10.16,0,0,0-3.05,2.08c-.2.25-.8.82-1.29,1.28a7.4,7.4,0,0,0-1,1,1.27,1.27,0,0,1-.94-.31c-.24-.2-.6-.5-.94-.8-1.2-1-1.31-1.11-1.47-1.11h-.16l-.08.13c-.09.17-.05.24.44,1.05a22.84,22.84,0,0,1,1.67,3.14,7.17,7.17,0,0,1,.31,4.33c-.45.17-2.38.9-4.77,1.73a106.76,106.76,0,0,1-12.05,2.75c-1.22-.58-2.37-2.28-2.89-4.41a8.92,8.92,0,0,1-.08-4,6,6,0,0,1,3.19-4.17c3.19-1.67,5.07-2.07,6.29-2.07a5.32,5.32,0,0,1,1.56.24l.11,0a2.53,2.53,0,0,0,.64.11c.44,0,.76-.57,1-1.38a19.09,19.09,0,0,0,.53-3.38c0-.4,0-.77.07-1.08h0l8.48-8.13,14-13.45A10.84,10.84,0,0,1,661.79,664c4.06,3.3,3.74,6.87,3.74,6.89l-.13.93.5.14,8.1-18.84v-.07a4.34,4.34,0,0,1,.11-2.24,1.61,1.61,0,0,0,.81-1l0-.08,0-.07a9.31,9.31,0,0,1-.35-1.3c0-.09,0-.18,0-.26a1.39,1.39,0,0,1,0-.27,1,1,0,0,1,.09-.67c.39-.39.27-1,.15-1.7a3.25,3.25,0,0,1-.08-1.33c.32-1.11,1.75-5.74,2-6.13l0-.07v-.11c0-.15-.08-.27-.41-.59L676,637l-.15-.14-.14-.13a7.78,7.78,0,0,1-1-1.11,18.22,18.22,0,0,1-1.15-3.7c0-.28,0-.46-5.23-1.59-2.07-.45-4.16-.87-4.82-1v-1.71l11.19,2.18h1.13l.08-.14a4.36,4.36,0,0,1,4.49-2,4.65,4.65,0,0,1,4,3.24l0,.16,15.49,3.15-.64,2.57,0,.07v0l-.53-.1-14.57-2.68,0,.27a7.28,7.28,0,0,0,0,2.36.75.75,0,0,0,0,.16l0,.11.1.26c.62,1.64,2.57,7.18,2.62,7.59a9.27,9.27,0,0,1-.37,1.86,2.61,2.61,0,0,0,0,1.08V648c0,.08,0,.17,0,.26s0,.18,0,.27a3.14,3.14,0,0,1-.14,1.38,2.86,2.86,0,0,0-.43,1.32v.06l3,6c-.6.93-1.22,1.86-1.86,2.77l-2.77-5-.49.13.11,9.16c-1.47,1.91-3,3.78-4.63,5.61ZM578.81,626.9h7.12l3.73,4.64,1.79,2.74-2,.56v.07l0-.07-.93.28-.38.11a3.28,3.28,0,0,0-.42.11,5.5,5.5,0,0,0-.61.23,3.75,3.75,0,0,0-1.08.73c-.87.86-.63,1.45-.16,2.62l.1.25c.3.75.5,1,.66,1.07a.57.57,0,0,0,.52.53c.35,0,.75-.37.85-1.21a.5.5,0,0,1,.21-.36,2.53,2.53,0,0,1,1.78,0c.2,0,.62.36,1.13,1.81a5.78,5.78,0,0,0,.5,1,4.58,4.58,0,0,1,.43.86v0a.38.38,0,0,0,0,.18s-.21.18-.91.15c-4.43-.18-5.07-1.29-5.07-1.29l0-.07-5.82-6.63-.24-.28-.24-.28-2.16-2.46c-.13-.16-.25-.29-.35-.4a2.39,2.39,0,0,1-.77-2C576.22,627.61,578.52,627,578.81,626.9Zm42.75,39.73a1.8,1.8,0,0,0,0-.22.78.78,0,0,0-.14-.4,6.53,6.53,0,0,1-.88-4v-.35c0-.51.94-1.25,1.92-1.85.4-.24.8-.46,1.16-.64l2.17.65a30.85,30.85,0,0,0-2.26,2.2,2.63,2.63,0,0,0-.16,3.22c.31.54,1.31,2,1.7,2.56l-4,2.62-7.2,4.69-.42-1.94c1.31-.78,7.54-4.61,8.07-6.47Zm-33.19-29.77a4.55,4.55,0,0,0,1.12.94,2.43,2.43,0,0,1,.84.76,3.62,3.62,0,0,1,.22.37,1.26,1.26,0,0,0-.46-.26,3.08,3.08,0,0,0-2.21.1,1,1,0,0,0-.44.72,1.11,1.11,0,0,1-.29.74.37.37,0,0,1,0-.14.34.34,0,0,0-.26-.32s-.15-.11-.43-.8l-.1-.25c-.45-1.13-.57-1.43,0-2.05a3.8,3.8,0,0,1,1.45-.82A2.08,2.08,0,0,0,588.37,636.86Zm1.41.5a4.06,4.06,0,0,1-1-.85c-.42-.48-.44-.72-.43-.79l.22-.07.74-.22.26-.08.76-.13,1.52-.26a1.42,1.42,0,0,1,.83.4l.09.07a.91.91,0,0,1,.18.21,1.75,1.75,0,0,1,.16.27,6.05,6.05,0,0,1,.32,1.79c0,.15,0,.3,0,.47a12.33,12.33,0,0,1-1.07,3.87,19,19,0,0,0-1.62-3.78A3,3,0,0,0,589.78,637.36Zm4.2.75c0-.15,0-.31,0-.46a7.33,7.33,0,0,0-.26-1.7L595,636l23.34.43a6.34,6.34,0,0,0,.63.65l.45.43c.91.91,5.37,5.76,5.42,5.81l2.61,2.76.75,1.17H596.37l-3-4-.63-.38-.09-.08A13.57,13.57,0,0,0,594,638.11Zm34.61-1.74.25.27,5.42,5.91,1.06.8a1.31,1.31,0,0,0,.13.16,1.6,1.6,0,0,0-.47-.08,9.61,9.61,0,0,0-1.65.27l-.07,0L631.89,645a17.87,17.87,0,0,0-1.35,1.48.87.87,0,0,0-.08.86,2.77,2.77,0,0,0,.26.53,6.47,6.47,0,0,0,.9,1.07,3.15,3.15,0,0,1,.56,1.48l-.89.3a8.22,8.22,0,0,1-1.81-1.09,4,4,0,0,1-.54-1.79l0-.26c0-.06,0-.11,0-.17v-.06l0,0-.94-1.47L625.26,643c-.18-.2-4.51-4.9-5.43-5.82l-.46-.44-.26-.25c-.09-.1-.18-.18-.25-.27a2.47,2.47,0,0,1-.21-.27,4.07,4.07,0,0,1-.47-1.17c-.33-1.21.82-2.92,1-3.18a6.57,6.57,0,0,1,2.6-.45,4.54,4.54,0,0,1,3.63,1.77l2.94,3.21Zm8.26-3.15a3.36,3.36,0,0,0,.22-.4c.19-.43,2-.58,2.6-.63h.09a11.85,11.85,0,0,1,3.48,1.42l4.71,2.85.46.28.45.27,9,5.45,0,0a20,20,0,0,1,3.23,2.27,2.16,2.16,0,0,1,.7,1.52.54.54,0,0,1-.05.22.45.45,0,0,0,0,.42.43.43,0,0,0,.38.16h.41a12.69,12.69,0,0,0,1.55,0,2.44,2.44,0,0,1,1.52.55.93.93,0,0,1,.14.14,1.71,1.71,0,0,1,.14.27c0,.08.05.17.07.27a5.4,5.4,0,0,1,.08.69,2.59,2.59,0,0,0,.14.77.25.25,0,0,1,0,.16.5.5,0,0,1-.3.2,1.93,1.93,0,0,1-.81-.52l0,0a2.37,2.37,0,0,0-1.36-.77l-.19,0a1.44,1.44,0,0,0-1.32.2,1.51,1.51,0,0,0-.64,1.42c0,.13,0,.25,0,.36-.08.68.72,1.13,1,1.25h0c-.27,0-.76.1-1,.1s-.5-.13-1.22-.73c-.21-.18-.15-1.24-.12-1.75,0-.21,0-.41,0-.56s0-.25,0-.35a1.5,1.5,0,0,0,0-.49.37.37,0,0,0-.15-.2.49.49,0,0,0-.19,0,.74.74,0,0,0-.37.13A8.25,8.25,0,0,1,657,648l-.18-.09-.53-.28-3.86-2-9.13-6.08s-2.48-1.46-4.43-2.74l-.41-.28-.39-.27c-.31-.21-.59-.42-.83-.6A1.54,1.54,0,0,1,636.85,633.22Zm21.62,3.7.44.26,0,0c1,.58,9.85,6.9,10.95,7.69v.55a4.53,4.53,0,0,1-1.29,1,1.91,1.91,0,0,1-1.36-.25l-2.26-.93L658,641l-6.42-3.89-.45-.27-.45-.28-.08,0-4-2.65c-.3-.2-.47-.4-.46-.54s.25-.36.7-.59a6.75,6.75,0,0,1,2.53-.63,11.6,11.6,0,0,1,3.29,1.41l5.32,3.18Zm11.65,11.15v0a.44.44,0,0,1,0,.23.4.4,0,0,1-.17.22.89.89,0,0,1-1.12-.08l-.07-.07-.09-.09a1.1,1.1,0,0,1-.2-.27.48.48,0,0,1-.07-.26s0,0,0,0a.64.64,0,0,1,.32-.45.74.74,0,0,1,.41-.11.73.73,0,0,1,.25,0h0a1.22,1.22,0,0,1,.64.59A.82.82,0,0,1,670.12,648.07Zm-1.87,2.21a1.43,1.43,0,0,1,1.08-.37h0a.86.86,0,0,1,.78.69,1,1,0,0,1-.05.75,1,1,0,0,1-.75.42.79.79,0,0,1-.61-.3C668.27,650.92,668.11,650.49,668.25,650.28ZM631,646.76c.16-.21.41-.49.65-.75l-.05.11a3.06,3.06,0,0,0-.18,1.19H631C630.92,647.06,630.88,646.87,631,646.76Zm6.93.63v1.14a4.5,4.5,0,0,1-1,1.43.25.25,0,0,1-.22.07.55.55,0,0,1-.26-.19l.12-1v-2a1.56,1.56,0,0,0-1.27-1.59.76.76,0,0,0-.65.14,1.09,1.09,0,0,0-.33.79v.09l.07.08a7.93,7.93,0,0,1,.69,1l.15.26c0,.09.08.18.11.27a.61.61,0,0,1,0,.12c.09.28,0,.35-.49.57a2.8,2.8,0,0,0-.61.33c-.32.24-1.23-.38-1.84-.78l-.23-.16-.13-.12a.87.87,0,0,1-.14-.27,1.1,1.1,0,0,1,0-.27,2.81,2.81,0,0,1,.14-1h0l.63-1.25,1.44-.84,2.16.25,0-.11a1.36,1.36,0,0,0,.46.24c.27.07.6.64.74,1l.38,1.28Zm-1.85,0h-.35a7.78,7.78,0,0,0-.83-1.25.49.49,0,0,1,.13-.29.21.21,0,0,1,.2,0,1,1,0,0,1,.85,1.07Zm36.64.73a2.56,2.56,0,0,1,0,.27l0,.14s-.06,0-.16.07a.72.72,0,0,0-.15-.11h0s0-.06,0-.1a2,2,0,0,0-.07-.26,2.18,2.18,0,0,0-.11-.27,4.23,4.23,0,0,0-.49-.71,3.21,3.21,0,0,1-.45-.66,1.35,1.35,0,0,1,.67.09h0a1.76,1.76,0,0,1,.89,1.29A1.13,1.13,0,0,1,672.68,648.1ZM650.53,637l7.19,4.37,7,4.36,2.28.94a3.31,3.31,0,0,0,1.17.36,1.14,1.14,0,0,0-.29.58.62.62,0,0,0,0,.13l-1.49,0a1.21,1.21,0,0,0-.44-.58,2.81,2.81,0,0,0-1.91-.64,13.54,13.54,0,0,1-1.45,0h-.27a1.1,1.1,0,0,0,0-.27,2.74,2.74,0,0,0-.87-1.92,21.5,21.5,0,0,0-3.37-2.35l-8.2-5ZM643,640l9.15,6.1,2.93,1.51-16.63-.22v-.53l-.41-1.42c-.07-.2-.48-1.19-1.11-1.35a3.7,3.7,0,0,1-1.18-1.1l-1.09-.83-5.06-5.51,8.28.15C639.84,638.18,642.83,639.93,643,640Zm-18.45,25.53a2.37,2.37,0,0,0-.4-.64.78.78,0,0,1-.24-.54,3.42,3.42,0,0,0-.11-.54.88.88,0,0,1,.12-.92l.36-.5a2.27,2.27,0,0,1,.57-.64,2.54,2.54,0,0,0,.58-.66,2,2,0,0,1,.56-.63.84.84,0,0,0,.53-.54l.19-.16,1.33-.86,3.5-2.27,5.33-3.47a2.55,2.55,0,0,1,1.8.58s.08.14-.13.32c-.55.48-3,2.23-5.26,3.79l-3.67,2.55-.16.11c-.28.17-2.77,1.7-2.77,2.87a23.42,23.42,0,0,1-.23,2.58l-1,.32A1.6,1.6,0,0,1,624.52,665.54Zm49.68-19.95c.09.51.19,1,0,1.22a1.39,1.39,0,0,0-.26,1h-.74a2.28,2.28,0,0,0-1.14-1.75,1.48,1.48,0,0,0-1.33,0,.46.46,0,0,0-.11.56,3.27,3.27,0,0,0,.54.81c.1.13.2.25.28.37h-.84a1.83,1.83,0,0,0-1.06-1.1l-.21,0a6.18,6.18,0,0,0,1-1l.07-.07v-1l-.11-.08c-.37-.26-7.85-5.6-10.38-7.32l15.53,0c.23.22.51.48.63.62-.44,1.06-1.94,6.08-2,6.14A3.66,3.66,0,0,0,674.2,645.59Zm-88.63-3.46c.15.27,1,1.38,5.5,1.56h.22a2.24,2.24,0,0,0,.38,0l-.16.29c-.71,1.29-3.54,1.95-3.8,2l-22.12-.26.62-2.19a14.89,14.89,0,0,0-.12-3.39c-.11-1.13-.6-4.68-.75-5.78l14.09.81ZM628.63,654s.93-.27,1.33.39c.18.3.71,1.07,1.24,1.81l-4,2.57c-1.28-.19-2.84-.28-2.84-.28l.4-1.45Zm-1,13.35,2-1.85.13-4.53,0,0c.18-.12,2.42-1.67,4.66-3.24a15.77,15.77,0,0,1,2.72-.14c1.06.13,1.72.65,1.72,1.32s-.13,7-.13,7l-6.73.26v.66l4.35.13-.22,8.56-8.5,8.15Zm48.54-29.56a.24.24,0,0,1,.06-.11Zm10.83,10a6.13,6.13,0,0,1,0-.81,9.65,9.65,0,0,0,.42-2.1c0-.42-1.92-5.78-2.59-7.59l13.84.05.39.07a104.39,104.39,0,0,1-4.75,10.65c-1.53,0-4,0-7.28-.06A1.48,1.48,0,0,0,687,647.79Zm-43.51-64.92c4.09-3.78,20.13-13.92,20.13-13.92l5.21,1.09,9-3.49s18,11.8,26.45,17.91c.65,8.8,1.24,17.7,0,26.44C684,601.58,663.59,592.52,643.44,582.87Zm-73.37,43.29c0-.06-7.81,5.1-7.81,5.1s6.53-7.1,7.81-8C570.07,623.25,570.27,626.8,570.07,626.16Zm0-19.61c-.1-.11-10.22,6.34-10.22,6.34l.08-10.81,9.83-6.54S570.3,606.84,570.06,606.55Zm0-37c-.33.68.06,8.29.06,8.29l-10.58-.16.29-6s9.33-1.79,10.23-2.14c0,0,0-.06.06,0S570.07,569.53,570,569.56Zm-5.3-24.37c-1.77-1-5.22-2.57-5.22-2.57v-8.68l10.57,7.59,0,6.72Zm-.61,87.39c-.14,4.24,2,8.62-.21,12.58a22.52,22.52,0,0,1-4.11,5.31c-.9.87-2.79.94-2.85-.44-.08-1.69.88-3.57.57-5.23a19.9,19.9,0,0,0-3.31-7.7c-1.92-2.76-6-2.44-9.05-1.58-4.13,1.14-8.23,1.27-12.34,2.56-1.48.46-3.45,1.35-5.13.24-.17-.11-1.38-.62-1.38-1-8.24.41-14.61,4.7-22.91,3.19-1.84-.33-3-5.64-3-5.64l18-6.57s20.91-1.23,30.88-.5C554.27,628.2,558.71,631,564.1,632.58ZM551,638.45l-19.57,42.44-.77-.35,19.57-42.45Zm-55.13-41.31a5.55,5.55,0,0,1,0-5.28c1,.72.5,1.77.46,2.64S496.92,596.44,495.88,597.14Zm-.52-10.63a.66.66,0,0,1-.5-1c1.23-2.22,1.9-4.87,4.27-5.58,3.46-1,6.91.71,10.45,1.55a2.85,2.85,0,0,1,2.06,2.93c0,.39-.86.75-.82,1,.3,2.11,2.6,3,3.45,4.84.45,1,.13,3.47-1.31,2.38-3.94-3-6.31-10-12.44-7.5C499,585.83,497.27,587,495.36,586.51Zm5.31-21.61c.61-1.42,2-2.26,2.61-3.72.36.36,1,.83.92,1-1.19,2.82-2.08,5.66-3,8.52C500.39,568.87,499.91,566.69,500.67,564.9ZM503.45,594c.32-2.5-.64-8,2.81-6,6,3.37,4.9,10.4,3.83,16.57-.14.81-1.2.33-1.38.62-1.93,3.19-2.82,6.66-4.17,10.05-2.15,5.47-2.27,11.51-5,16.85-.35-.36-1-.74-.93-1C500.37,618.45,501.83,606.67,503.45,594Zm-2.74,46.28c2.65,4.09,3.76,4.19,3.94,4.19l32.49-5.58-10,6.13-15.68,3.16L505.9,651A104.74,104.74,0,0,1,500.71,640.29Zm40.52-26.22-.15,11.62-3.51.19L532.92,620ZM539.8,583a1.41,1.41,0,0,1,1.51,1.94c-.35,1-1.42.67-2,.44C538,584.88,538.94,583.12,539.8,583Zm-4.55,43.13-12.53.35,8.83-5.68Zm-4-39a.63.63,0,0,1-1,.48c-1.45-.91-1.83-2.6-3.19-3.66-1.76-1.37-2.69-3.28-4.24-4.76.53-.52,1-1.36,1.6-1.43,2.1-.2,5.41-.68,6,.13C531.79,579.51,531.09,583.92,531.23,587.1ZM527,602.64c0,.54,1,4.05,1,4.69s-.3.51-.84,1.06a11.3,11.3,0,0,1-.7-1.5c-2.11-4.07-2-8.94-3.15-13.44-.21-.82-1.59-.28-1.68-1.58-.2-2.84-1.46-6.09-1.23-9,.07-.95,1-1.6,1.48-2.43C521.93,580.49,527,601.38,527,602.64Zm9.44-25,5.74-1.21.22,1.59Zm3.33-22.11c-.14,1.91-2.43,4.54-4.77,4.63.31.7-1,1.14-.45,1.46s1.36,1.19,1.94.57c.32-.33.58-1.76,1-1.31a18,18,0,0,1,2,5.68c.1.79-2.75.72-2.48,1.56.9,2.85-1.41,2.91-1.33,5.29.06,1.83-.93,2.49-1.55,2.61-3.94.73-9.5-.25-11.62.79a11.57,11.57,0,0,0-4.51,5c-1.13,2.44,1.17,5.29,1.13,8,0,.38.27,1.74,0,1.39a69.06,69.06,0,0,0-7.25-9.59c-2.53-2.68-5.63-2.14-9.36-2.76-1-.17-1.52-1.16-1.2-1.63a26.33,26.33,0,0,1,11.11-9.83c3.29-1.47,7.67,1.23,10.8-1.56,1.77-1.57,3.15-3.54,5.09-4.85,2.87-1.93,6.62-5.69,9.11-6.82.89-.4,1.16-.59,1.81-.07A1.62,1.62,0,0,1,539.79,555.49ZM506,564.36c0-2.38,2.2-3,3.63-4.77,1.35,3.13.16,8.79-3.64,8.14C504.29,567.44,506,565.59,506,564.36Zm33.25-12.54c-2.83,1.75-5,3.55-8.47,4.47-.7.2-.38-1.22-.57-1.28-2.74-.84-7.27,3.08-7.84.24-.33-1.58,2.21-3.34,4.21-4.61a31,31,0,0,0,6.32-5.85c-4.67.38-10.89,6.57-13.15,2.32-.54-1,1.62-4.11,3.34-5.11,3.49-2.06,8.09-1.83,11.8-.11C538.78,543.7,540.58,551,539.25,551.82ZM495.35,604c1.08.92.26,2.12.54,3.17.61,2.24-1,4.42.15,6.56a5.69,5.69,0,0,1-.16,5.61c-.53-.53-1.42-1.06-1.41-1.58C494.6,613.31,492.9,607.74,495.35,604Zm11.82,49.22,4.85-2.61.5.93-4.82,2.6Zm4.09,1.73-1.59,1.58-.6-.6,1.59-1.58Zm1.21,6.42,5-9.57.76.4-5,9.65-.58-.3Zm3.84,5,7.62-14.21.75.4-7.79,14.52Zm-1.68-16.14-.22-1L526,646.75l.23,1ZM536.38,642l.45,1-7.79,3.7-.46-.95Zm7.24-2.2.78.33-16.13,37.69-.78-.34Zm-8.44,44.83,18.88-43.48s1.05,1.85,1.72,3.44-.4,5-.4,5l-16.61,37.61Q537,686,535.18,684.66Zm47,18.46-1.4-.59a16.86,16.86,0,0,0-.79-4.1,2.15,2.15,0,0,0-.34-.43l3.3-1.66h.34a1.17,1.17,0,0,1,1.17.85,17.23,17.23,0,0,1-.12,4L582,702.92Zm2.88-15.88a7.16,7.16,0,0,0,2.91-.46c.94-.47,1.14-1.89,1.17-2.72a20,20,0,0,1,3.2,1.26,2.67,2.67,0,0,0,2.24.17l.09,0,0,.08c.11.71.3,1.28,1.71,1.67,1,.26,1.79.53,2.2.68a16.53,16.53,0,0,0,.41,4.45,2.62,2.62,0,0,0,2.18,1.85,13.19,13.19,0,0,0-1,3.32,7.46,7.46,0,0,0,.36,1.82c.12.39.24.75.33,1l-1.66.9.11.44-.26.16a.36.36,0,0,1,0-.34,4.71,4.71,0,0,1-.59.76,5.23,5.23,0,0,0-.89,2.91.76.76,0,0,1-.32-.11,9.12,9.12,0,0,0-3.54-.17,5,5,0,0,0-1.5.72,1.73,1.73,0,0,1-.39.18c-.62,0-1.23-.09-1.85-.15l-.27-.31-.19-.22a10.82,10.82,0,0,0-1.08-2.53c-.6-1-2.37-1.42-3.2-1.58a16.46,16.46,0,0,0,.08-4,1.93,1.93,0,0,0-1.52-1.46,22.14,22.14,0,0,1,.46-2.56c.25-.89-.67-2-1.24-2.5.61-.55,1.37-1.21,1.59-1.37C585,688.86,585.07,688,585.05,687.24Zm-2.73,3.8c.58.55,1.19,1.35,1.08,1.72a24.6,24.6,0,0,0-.5,2.83l-3.74,1.88.12.25a2.31,2.31,0,0,0-.89-.34l-.27-4,.53-1.06,0-.23Zm-2-9.53,16.3-8.21c.62-.26,2.48-.82,2.88.05.7,1.52.45,2.6-.74,3.3-.66.38-6.61,3.34-13.28,6.64C576.42,687.8,566,693,565.77,693l-.67.33,4.14,2.65a4.09,4.09,0,0,1,0,.78l-3.75,1.45L551.9,693a9.85,9.85,0,0,1,2.81-2.09,4,4,0,0,1,1.34-.26l4,1.1ZM566,700.78l-.09-1.73v-.25l.83-.32,2.6-1v.14l0,.61.27,3.68C568.45,701.55,567.23,701.18,566,700.78Zm-10.24-5.38c-.1.48-.21,1-.29,1.3l-.19-.08-1.11-.79c-1-.7-1.53-1.08-1.85-1.28,0-.09,0-.21.08-.34l0-.11,0-.09,3.33,1.33Zm5.59,2.18,0-.14,3.69,1.5V699l.09,1.41L561,698.88Zm-11.73-3.73-.71-.38,0,0c-.1-.17-.21-.51-.12-.64s.34,0,.61.11l.43.25C549.77,693.4,549.7,693.65,549.64,693.85Zm32.71,10.66v-1.14l.08.1,2.28-1.7c.95.14,2.57.61,3,1.26a10.39,10.39,0,0,1,1,2.39l0,.09,0,0c-2.06-.2-4.1-.47-6.14-.79Zm58.53-137,20.76-54.72q4.14,3,8,6.41c-3.61,6.79-19,36.11-25.16,51.45a2.8,2.8,0,0,0,2.56-.64l37.11-33.21c2.7,3.18,5.82,7.93,6.35,10.58L649.4,573.74l.05,3.19-7.56,5.16L626,575s-25.47-28.5-38.06-43c2.11.26,2.11-1.06,2.21-3.16,0-.4.43-7.29.43-7.29s23.4,32,35.52,48.61a6.74,6.74,0,0,0,2.14,1.54s1.35,0,.83-1.7c-.46-1.5-26-65-30.92-77.21l1.16,0c3.43,0,6.84.17,10.22.49,3.75,11.89,22.92,72.65,23.59,74.44.75,2,1.36.93,1.36.93L632.58,498c2.2.72,4.36,1.51,6.5,2.37v67C639.21,567.79,640.27,569,640.88,567.56Zm-66.33-70.77c1.07,3.3-3.3,5.42-4,5.29-.44-.09-5.67-1.46-9.13-2.38a105,105,0,0,1,12.75-4C574.3,496,574.42,496.38,574.55,496.79Zm-17,4.51,27.24,5.93s-5.89-7.62-8.87-11.9c1.56-.35,3.13-.67,4.7-.95l11.84,16.15a45.88,45.88,0,0,1-.09,5.68c-.27,2-3.34,1.3-3.34,1.3L588.63,530l-3,.11.23,96.06a1.17,1.17,0,0,1-.55.2h-2a24.45,24.45,0,0,0-3.53,0h-1.07s-3.07.72-2.84,3.45a2.91,2.91,0,0,0,.91,2.28l.13.14A3.19,3.19,0,0,0,578,633.5l.21.24c-.66.29-6.57-.1-6.57-.1l-.18-105.09c-4.35-1.32-8.58-2.88-13.18-2.8.3,34.22-.76,103.26-.76,103.26a21,21,0,0,1-2.21-.68c-3.34-1.5-6.67-1.32-10.21-1.83-.34,0-1.56,0-1.56-.79-.09-34.4,2-103.14,2-103.14l-13.22-2.38L532,539.45l-11.83.37.16-12q1.7-1.87,3.5-3.68a107.61,107.61,0,0,1,15.62-13l11.33,2.91L551,512l-9.13-2.39c1.85-1.19,3.73-2.31,5.65-3.38l28.59,7.16s-.13.83-.38,2.61-1.58,2.08-3,1.66c-3.23-1-16.55-4.23-16.55-4.23l-.21,2,24.42,6.09.66-9.79-30.25-7.25C553,503.34,555.22,502.29,557.5,501.3ZM519.72,670.43l11.89-23,.75.39-11.91,23-.63-.33Zm10-8.68.75.39-6.61,12.56-.29-.15-.38-.4Zm-34.22-4.57L482.89,664l2.42,4.5-2.52,1.35-6.59-12.28,2.51-1.35,2.42,4.51,12.65-6.79Zm-8.15-17.47-16.51,4.85-1-3.54,6.6-1.94-1.83-6.23-6.6,1.93L467,631.2l16.51-4.85,1,3.54L477.26,632l1.84,6.27,7.24-2.12Zm-6-25.21-17.16,1.38-.92-11.48,2.81-.23.62,7.8,4.08-.32-.59-7.31,2.8-.22.59,7.3,4.63-.36-.65-8.07,2.84-.23ZM476,574.2l-9.93-2.67,1-3.56,10.11,2.72c1.82.49,4.12,1,5.06-2.51a3.83,3.83,0,0,0-.58-3.61,4.9,4.9,0,0,0-2.68-1.29L469,560.62l.94-3.48,10.37,2.79c4.94,1.33,5.46,5.69,4.56,9-.45,1.66-1.63,4.6-4.55,5.48A7.37,7.37,0,0,1,476,574.2ZM491,550.35l-15.17-8.11,2.51-4.7,15,.69-11.95-6.37,1.62-3,15.18,8.1-2.4,4.47L480,540.56l12.59,6.72Zm14-23-13.55-10.68,2.29-2.9,13.55,10.69Zm13.84-15.23-16.15-8.53,3-2.68L518,508l-5.64-13.06,2.71-2.44,6.73,17Zm16.43-12.91-8.66-14.87,10-5.79L538,481,531.2,485l2.06,3.54,6.34-3.69,1.42,2.43-6.33,3.69,2.33,4,7-4.08,1.43,2.47Zm23.81-11.74-2.23-6.58,3.07-1a1.65,1.65,0,0,1,2.07.33c.43.55,2.33,4.51,2.79,5.36l3.86-1.31a3,3,0,0,1-.89-1,30.18,30.18,0,0,1-1.57-3c-1-2-1.67-3.36-4.19-2.75a4.31,4.31,0,0,0,2-5.14,4.39,4.39,0,0,0-2.48-2.66c-1.69-.68-3.52-.06-5.31.57L550,472.43l5.52,16.29ZM556.66,473a4.07,4.07,0,0,1,2.43-.39,2.15,2.15,0,0,1,1.47,1.53,2.4,2.4,0,0,1-.26,2.2,3.05,3.05,0,0,1-1.63,1.06l-2.82.95-1.54-4.55Zm20.63-3c-.34-2.81,1.37-5.53,6.11-6.11a6.44,6.44,0,0,1,5.39,1.39,5,5,0,0,1,1.36,3.05l-3.52.43a2.56,2.56,0,0,0-3.08-2.27c-1.7.2-2.7,1.26-2.53,2.65.19,1.59,1.48,1.72,4,2,3,.35,6,.8,6.45,4.13.36,3.07-1.89,5.86-6.61,6.43-6.54.79-7.09-3.41-7.33-5.06l3.74-.45c.09.81.34,3.25,3.49,2.86,2-.23,3.11-1.33,2.94-2.77s-1.28-1.65-3.52-1.9C580,473.89,577.64,473,577.29,470Zm29.59,10.63-3.69-.17.78-17.23,3.7.17Zm18.62-12-5-1.06.59-2.8,13.65,2.9-.6,2.79-5-1.06-3,14-3.62-.77Zm19.44,20.78,2.49-5.79-1.06-12.24,4,1.71.17,8.58,6.41-5.76,3.48,1.5-9.63,7.7-2.47,5.74Zm35.67,23.52a8.12,8.12,0,0,0,6.13,2.39,10.48,10.48,0,0,0,6.19-3.43,9.81,9.81,0,0,0,2.83-6.22,7.93,7.93,0,0,0-2.81-5.83c-4.51-4.23-9.2-2.26-12.32,1.07-1.07,1.14-2.85,3.39-2.85,6.13A8.33,8.33,0,0,0,680.61,512.88Zm.56-5.09a10.06,10.06,0,0,1,6.69-7.16,4.09,4.09,0,0,1,4.08,6,10,10,0,0,1-1.78,2.53,8.39,8.39,0,0,1-4.23,2.8,4.12,4.12,0,0,1-4.76-4.18ZM694.07,527l14.06-9.89,6.38,9.07-2.26,1.59L708,521.67l-3.47,2.44,4,5.64-2.34,1.64-4-5.64-6,4.21Zm17.72,32.81,16.36-5.48,1.17,3.49L713,563.26ZM717,580a16.9,16.9,0,0,0,.64,3c1.08,3.13,4.23,5.52,9.45,4.74,2.42-.36,5-1.51,6.25-3.89s.79-5.15.66-6.09l-.83-5.63-17,2.54Zm14-3.72a11.86,11.86,0,0,1,.34,3.85c-.29,2.37-2.38,3.53-4.78,3.89-.83.12-3.38.41-5-.82-1.22-.89-1.54-2.22-1.77-3.77-.06-.42-.14-1-.17-1.44Zm-12.32,25,3.64,1.49-.38,6.79-3.78,1-.21,3.7,17.51-5,.25-4.37-16.82-7.17Zm6.36,2.6,7.17,2.95-7.44,2ZM716,624.75l16.56,4.63-1,3.56L725,631.08l-1.76,6.26,6.63,1.85-1,3.6-16.57-4.63,1-3.55,7.27,2,1.76-6.31-7.27-2Zm-.46,27.8c-1.38-.74-4-1.89-6.66-1.19a8.29,8.29,0,0,0-5,4.24,8.15,8.15,0,0,0-.75,6.55,10.6,10.6,0,0,0,4.89,5.11,10,10,0,0,0,6.74,1.15,7.94,7.94,0,0,0,4.92-4.22C722.7,658.75,719.6,654.72,715.58,652.55ZM717.43,663a4,4,0,0,1-4.55,2,9.92,9.92,0,0,1-2.9-1.08c-2.41-1.3-3.31-2.46-3.78-3.37a3.47,3.47,0,0,1,.12-3.58,3.53,3.53,0,0,1,2.69-2.09,10.08,10.08,0,0,1,8.64,4.64A3.9,3.9,0,0,1,717.43,663Zm-199.2,31.25L523,697.9l-5.83-.37-1.73,5.27-1.82-5.5-5.77-.42,4.71-3-1.82-5.6,4.72,3.68,4.55-2.9Zm167.28-.28,4.71,3-5.77.42-1.81,5.49-1.74-5.26-5.83.37,4.73-3.69-1.73-5.1,4.55,2.9,4.71-3.68Z" transform="translate(-449.28 -449.53)"/></svg>